# xmcd
#
# Track frame offsets: 
#        150
#        22103
#        44898
#        60001
#        74657
#        80062
#        84610
#        91631
#        105186
#        110807
#        117250
#        146465
#        162747
#        188583
#        206408
#
# Disc length: 3007 seconds
#
# Revision: 0
# Processed by: cddbd v1.5.2PL0 Copyright (c) Steve Scherf et al.
# Submitted via: ExactAudioCopy v0.95b3
#
DISCID=ce0bbd0f
DTITLE=Chicago  - Collector's Edition [CD1]
DYEAR=1900
DGENRE=
TTITLE0=25 Or 6 To 4
TTITLE1=Questions 67 and 68
TTITLE2=Does Anybody Really Know What Time It Is?
TTITLE3=Make Me Smile
TTITLE4=So Much To Give
TTITLE5=Anxiety's Moment
TTITLE6=West Virginia Fantasies
TTITLE7=Colour My World
TTITLE8=To Be Free
TTITLE9=Now More Than Ever
TTITLE10=Beginnings
TTITLE11=Lowdown
TTITLE12=I'm A Man
TTITLE13=Saturday In the Park
TTITLE14=Feelin' Stronger Every Day
EXTD=
EXTT0=
EXTT1=
EXTT2=
EXTT3=
EXTT4=
EXTT5=
EXTT6=
EXTT7=
EXTT8=
EXTT9=
EXTT10=
EXTT11=
EXTT12=
EXTT13=
EXTT14=
PLAYORDER=
